<svg xmlns="http://www.w3.org/2000/svg" viewBox="0 0 1200 900"><rect width="1200" height="900" fill="#e9e5dc"/><path d="M0 665H1200V900H0Z" fill="#c9b69d"/><rect x="760" y="100" width="320" height="420" fill="#c4ddd4" stroke="#f8f7f2" stroke-width="20"/><path d="M920 100V520" stroke="#fff" stroke-width="15"/><rect x="190" y="385" width="645" height="250" rx="32" fill="#a8b5a8"/><rect x="160" y="450" width="690" height="290" rx="30" fill="#f5eee2"/><rect x="190" y="405" width="305" height="125" rx="25" fill="#fffaf0"/><rect x="520" y="405" width="305" height="125" rx="25" fill="#fffaf0"/><rect x="140" y="700" width="760" height="45" rx="15" fill="#8c7059"/><rect x="175" y="735" width="28" height="110" fill="#8c7059"/><rect x="835" y="735" width="28" height="110" fill="#8c7059"/><rect x="940" y="580" width="130" height="45" fill="#a07f64"/><rect x="960" y="625" width="15" height="165" fill="#8c7059"/><rect x="1040" y="625" width="15" height="165" fill="#8c7059"/><path d="M980 560V360" stroke="#d4bd92" stroke-width="12"/><path d="M920 370q60-110 120 0Z" fill="#f2dfae"/></svg>
